<svg xmlns="http://www.w3.org/2000/svg" width="800" height="800"><g stroke-width="1.75" stroke="hsl(261, 60%, 38%)" fill="none"><path d="M0 0l133.333 133.333M133.333 0L0 133.333"/><path opacity=".15" d="M0 0h133.333v133.333H0z"/><path d="M133.333 0l133.334 133.333M266.667 0L133.333 133.333"/><path opacity=".15" d="M133.333 0h133.333v133.333H133.333z"/><path d="M266.667 0L400 133.333M400 0L266.667 133.333"/><path opacity=".15" d="M266.667 0H400v133.333H266.667z"/><path d="M400 0l133.333 133.333M533.333 0L400 133.333"/><path opacity=".15" d="M400 0h133.333v133.333H400z"/><path d="M533.333 0l133.334 133.333M666.667 0L533.333 133.333"/><path opacity=".15" d="M533.333 0h133.333v133.333H533.333z"/><path d="M666.667 0L800 133.333M800 0L666.667 133.333"/><path opacity=".15" d="M666.667 0H800v133.333H666.667z"/><path d="M800 0l133.333 133.333M933.333 0L800 133.333"/><path opacity=".15" d="M800 0h133.333v133.333H800z"/><path d="M0 133.333l133.333 133.334M133.333 133.333L0 266.667"/><path opacity=".15" d="M0 133.333h133.333v133.333H0z"/><path d="M133.333 133.333l133.334 133.334M266.667 133.333L133.333 266.667"/><path opacity=".15" d="M133.333 133.333h133.333v133.333H133.333z"/><path d="M266.667 133.333L400 266.667M400 133.333L266.667 266.667"/><path opacity=".15" d="M266.667 133.333H400v133.333H266.667z"/><path d="M400 133.333l133.333 133.334M533.333 133.333L400 266.667"/><path opacity=".15" d="M400 133.333h133.333v133.333H400z"/><path d="M533.333 133.333l133.334 133.334M666.667 133.333L533.333 266.667"/><path opacity=".15" d="M533.333 133.333h133.333v133.333H533.333z"/><path d="M666.667 133.333L800 266.667M800 133.333L666.667 266.667"/><path opacity=".15" d="M666.667 133.333H800v133.333H666.667z"/><path d="M800 133.333l133.333 133.334M933.333 133.333L800 266.667"/><path opacity=".15" d="M800 133.333h133.333v133.333H800z"/><path d="M0 266.667L133.333 400M133.333 266.667L0 400"/><path opacity=".15" d="M0 266.667h133.333V400H0z"/><path d="M133.333 266.667L266.667 400M266.667 266.667L133.333 400"/><path opacity=".15" d="M133.333 266.667h133.333V400H133.333z"/><path d="M266.667 266.667L400 400M400 266.667L266.667 400"/><path opacity=".15" d="M266.667 266.667H400V400H266.667z"/><path d="M400 266.667L533.333 400M533.333 266.667L400 400"/><path opacity=".15" d="M400 266.667h133.333V400H400z"/><path d="M533.333 266.667L666.667 400M666.667 266.667L533.333 400"/><path opacity=".15" d="M533.333 266.667h133.333V400H533.333z"/><path d="M666.667 266.667L800 400M800 266.667L666.667 400"/><path opacity=".15" d="M666.667 266.667H800V400H666.667z"/><path d="M800 266.667L933.333 400M933.333 266.667L800 400"/><path opacity=".15" d="M800 266.667h133.333V400H800z"/><path d="M0 400l133.333 133.333M133.333 400L0 533.333"/><path opacity=".15" d="M0 400h133.333v133.333H0z"/><path d="M133.333 400l133.334 133.333M266.667 400L133.333 533.333"/><path opacity=".15" d="M133.333 400h133.333v133.333H133.333z"/><path d="M266.667 400L400 533.333M400 400L266.667 533.333"/><path opacity=".15" d="M266.667 400H400v133.333H266.667z"/><path d="M400 400l133.333 133.333M533.333 400L400 533.333"/><path opacity=".15" d="M400 400h133.333v133.333H400z"/><path d="M533.333 400l133.334 133.333M666.667 400L533.333 533.333"/><path opacity=".15" d="M533.333 400h133.333v133.333H533.333z"/><path d="M666.667 400L800 533.333M800 400L666.667 533.333"/><path opacity=".15" d="M666.667 400H800v133.333H666.667z"/><path d="M800 400l133.333 133.333M933.333 400L800 533.333"/><path opacity=".15" d="M800 400h133.333v133.333H800z"/><path d="M0 533.333l133.333 133.334M133.333 533.333L0 666.667"/><path opacity=".15" d="M0 533.333h133.333v133.333H0z"/><path d="M133.333 533.333l133.334 133.334M266.667 533.333L133.333 666.667"/><path opacity=".15" d="M133.333 533.333h133.333v133.333H133.333z"/><path d="M266.667 533.333L400 666.667M400 533.333L266.667 666.667"/><path opacity=".15" d="M266.667 533.333H400v133.333H266.667z"/><path d="M400 533.333l133.333 133.334M533.333 533.333L400 666.667"/><path opacity=".15" d="M400 533.333h133.333v133.333H400z"/><path d="M533.333 533.333l133.334 133.334M666.667 533.333L533.333 666.667"/><path opacity=".15" d="M533.333 533.333h133.333v133.333H533.333z"/><path d="M666.667 533.333L800 666.667M800 533.333L666.667 666.667"/><path opacity=".15" d="M666.667 533.333H800v133.333H666.667z"/><path d="M800 533.333l133.333 133.334M933.333 533.333L800 666.667"/><path opacity=".15" d="M800 533.333h133.333v133.333H800z"/><path d="M0 666.667L133.333 800M133.333 666.667L0 800"/><path opacity=".15" d="M0 666.667h133.333V800H0z"/><path d="M133.333 666.667L266.667 800M266.667 666.667L133.333 800"/><path opacity=".15" d="M133.333 666.667h133.333V800H133.333z"/><path d="M266.667 666.667L400 800M400 666.667L266.667 800"/><path opacity=".15" d="M266.667 666.667H400V800H266.667z"/><path d="M400 666.667L533.333 800M533.333 666.667L400 800"/><path opacity=".15" d="M400 666.667h133.333V800H400z"/><path d="M533.333 666.667L666.667 800M666.667 666.667L533.333 800"/><path opacity=".15" d="M533.333 666.667h133.333V800H533.333z"/><path d="M666.667 666.667L800 800M800 666.667L666.667 800"/><path opacity=".15" d="M666.667 666.667H800V800H666.667z"/><path d="M800 666.667L933.333 800M933.333 666.667L800 800"/><path opacity=".15" d="M800 666.667h133.333V800H800z"/><path d="M0 800l133.333 133.333M133.333 800L0 933.333"/><path opacity=".15" d="M0 800h133.333v133.333H0z"/><path d="M133.333 800l133.334 133.333M266.667 800L133.333 933.333"/><path opacity=".15" d="M133.333 800h133.333v133.333H133.333z"/><path d="M266.667 800L400 933.333M400 800L266.667 933.333"/><path opacity=".15" d="M266.667 800H400v133.333H266.667z"/><path d="M400 800l133.333 133.333M533.333 800L400 933.333"/><path opacity=".15" d="M400 800h133.333v133.333H400z"/><path d="M533.333 800l133.334 133.333M666.667 800L533.333 933.333"/><path opacity=".15" d="M533.333 800h133.333v133.333H533.333z"/><path d="M666.667 800L800 933.333M800 800L666.667 933.333"/><path opacity=".15" d="M666.667 800H800v133.333H666.667z"/><path d="M800 800l133.333 133.333M933.333 800L800 933.333"/><path opacity=".15" d="M800 800h133.333v133.333H800z"/></g></svg>